<?xml version="1.0" standalone="no"?>
<!DOCTYPE svg PUBLIC "-//W3C//DTD SVG 20010904//EN"
 "http://www.w3.org/TR/2001/REC-SVG-20010904/DTD/svg10.dtd">
<svg version="1.0" xmlns="http://www.w3.org/2000/svg"
 width="400.000000pt" height="400.000000pt" viewBox="0 0 400.000000 400.000000"
 preserveAspectRatio="xMidYMid meet">
<metadata>
Created by potrace 1.14, written by Peter Selinger 2001-2017
</metadata>
<g transform="translate(0.000000,400.000000) scale(0.100000,-0.100000)"
fill="#000000" stroke="none">
<path d="M0 2000 l0 -2000 2000 0 2000 0 0 2000 0 2000 -2000 0 -2000 0 0
-2000z m684 584 c24 -25 26 -33 26 -110 l0 -84 -50 0 -50 0 0 59 c0 72 -11 83
-82 79 l-53 -3 -3 -292 -2 -293 64 0 c49 0 65 4 70 16 3 9 6 58 6 110 l0 94
-30 0 c-28 0 -30 2 -30 40 l0 40 80 0 80 0 0 -164 c0 -160 -1 -166 -24 -193
-23 -27 -29 -28 -122 -32 -55 -2 -114 2 -136 8 -66 20 -68 29 -68 381 l0 312
29 29 c29 29 30 29 149 29 116 0 120 -1 146 -26z m258 -306 l3 -333 65 0 65 0
3 333 2 332 55 0 55 0 0 -340 c0 -377 -2 -388 -61 -409 -40 -14 -182 -14 -231
0 -67 18 -68 24 -68 409 l0 340 55 0 55 0 2 -332z m558 102 c35 -127 66 -227
69 -224 3 3 34 105 67 227 l61 222 62 3 61 3 0 -381 0 -380 -45 0 -45 0 -2
278 c-2 152 -6 270 -10 262 -4 -8 -28 -95 -54 -193 l-47 -178 -50 3 -50 3 -47
178 c-26 98 -51 181 -54 184 -3 4 -6 -116 -6 -265 l0 -272 -45 0 -45 0 0 380
0 380 58 0 59 0 63 -230z m770 190 l0 -40 -110 0 -110 0 0 -120 0 -120 90 0
90 0 0 -45 0 -45 -90 0 -90 0 0 -130 0 -130 110 0 110 0 0 -45 0 -45 -160 0
-160 0 0 380 0 380 160 0 160 0 0 -40z m815 -82 l76 -103 -50 -3 -50 -3 -3
-194 -3 -193 -30 -44 c-75 -105 -194 -127 -292 -52 -63 48 -67 67 -73 302 l-5
214 -33 29 c-36 32 -60 36 -101 15 -48 -25 -51 -47 -51 -321 l0 -255 -50 0
-50 0 0 269 c0 166 4 281 11 298 15 42 79 102 119 113 103 29 193 -10 243
-105 20 -36 22 -58 25 -247 l4 -208 25 -20 c37 -29 90 -26 125 7 l28 27 0 183
0 183 -55 0 -55 0 51 68 c94 121 111 142 114 142 3 0 38 -46 80 -102z m-1463
-960 l3 -53 53 -3 c69 -4 67 -22 -3 -22 l-55 0 0 -55 0 -55 40 0 c36 0 41 4
64 43 13 23 35 77 48 119 14 47 28 78 37 78 7 0 11 -6 8 -14 -3 -8 -9 -31 -13
-50 l-6 -36 96 0 c57 0 96 -4 96 -10 0 -5 -10 -10 -22 -10 -20 0 -25 -9 -39
-68 -9 -38 -26 -88 -38 -112 -12 -24 -21 -49 -21 -56 0 -15 66 -86 95 -102 15
-8 17 -14 8 -22 -8 -9 -25 1 -69 44 l-57 55 -38 -34 c-44 -40 -116 -79 -123
-67 -3 5 22 26 55 47 32 22 66 50 75 63 14 22 14 28 -4 70 -11 26 -26 67 -32
92 l-12 45 -22 -41 c-12 -23 -27 -39 -33 -37 -10 4 -13 -18 -13 -86 l0 -91
-76 0 c-67 0 -76 -2 -81 -20 -13 -50 -23 -11 -23 90 l0 110 40 0 40 0 0 55 0
55 -50 0 c-27 0 -50 5 -50 10 0 6 23 10 50 10 l50 0 0 55 c0 70 18 72 22 3z
m548 22 c0 -29 1 -30 50 -30 28 0 50 -4 50 -10 0 -5 -22 -10 -50 -10 -27 0
-50 -4 -50 -10 0 -5 18 -22 40 -36 22 -15 40 -33 40 -41 0 -10 -13 -4 -40 17
l-40 32 0 -56 c0 -31 -4 -56 -10 -56 -6 0 -10 27 -10 60 l0 61 -32 -38 c-41
-48 -60 -63 -71 -56 -5 3 12 26 37 52 25 26 46 52 46 59 0 7 -15 12 -40 12
-22 0 -40 5 -40 10 0 6 23 10 50 10 49 0 50 1 50 30 0 17 5 30 10 30 6 0 10
-13 10 -30z m230 0 l0 -30 60 0 c74 0 80 -18 8 -22 l-53 -3 57 -57 c31 -32 52
-60 47 -64 -6 -3 -33 17 -61 45 -28 28 -52 51 -54 51 -2 0 -4 -27 -4 -60 0
-33 -4 -60 -10 -60 -6 0 -10 27 -10 60 l0 59 -46 -49 c-26 -27 -51 -47 -56
-44 -6 4 11 27 36 53 56 56 58 71 11 71 -19 0 -35 5 -35 10 0 6 20 10 45 10
43 0 45 1 45 30 0 17 5 30 10 30 6 0 10 -13 10 -30z m-120 -198 c0 -4 -5 -13
-12 -20 -9 -9 10 -12 85 -12 76 0 97 -3 97 -14 0 -26 -89 -112 -147 -144 -69
-36 -207 -77 -231 -67 -11 5 13 15 71 31 99 27 153 52 141 64 -5 5 -33 22 -63
38 l-54 30 -45 -24 c-24 -13 -49 -21 -54 -18 -6 4 15 20 47 37 31 17 76 48 98
69 40 35 67 48 67 30z"/>
<path d="M1788 1455 c-13 -13 45 -195 62 -195 17 0 75 182 62 195 -7 7 -117 7
-124 0z"/>
<path d="M1547 1313 c-4 -3 -7 -35 -7 -70 l0 -63 70 0 70 0 0 70 0 70 -63 0
c-35 0 -67 -3 -70 -7z"/>
<path d="M2207 1286 c-16 -12 -12 -17 44 -50 33 -20 63 -36 67 -36 9 1 62 49
86 78 l19 22 -99 0 c-67 -1 -105 -5 -117 -14z"/>
</g>
</svg>
